<svg xmlns="http://www.w3.org/2000/svg" xmlns:xlink="http://www.w3.org/1999/xlink" width="500" zoomAndPan="magnify" viewBox="0 0 375 374.999991" height="500" preserveAspectRatio="xMidYMid meet" version="1.0"><defs><clipPath id="1ffa9827b4"><path d="M 56.046875 37.5 L 245 37.5 L 245 268 L 56.046875 268 Z M 56.046875 37.5 " clip-rule="nonzero"/></clipPath><clipPath id="93e2c507ab"><path d="M 130 106 L 319.296875 106 L 319.296875 337.5 L 130 337.5 Z M 130 106 " clip-rule="nonzero"/></clipPath></defs><path fill="#b5179e" d="M 98.515625 137.828125 L 98.515625 286.160156 L 109.128906 292.269531 L 109.128906 143.949219 L 187.625 98.6875 L 244.980469 131.761719 L 244.980469 119.523438 L 187.625 86.453125 Z M 98.515625 137.828125 " fill-opacity="1" fill-rule="nonzero"/><path fill="#b5179e" d="M 119.738281 150.066406 L 119.738281 298.382812 L 130.351562 304.492188 L 130.351562 156.1875 L 187.625 123.164062 L 244.980469 156.238281 L 244.980469 144 L 187.625 110.925781 Z M 119.738281 150.066406 " fill-opacity="1" fill-rule="nonzero"/><path fill="#b5179e" d="M 77.289062 125.589844 L 77.289062 273.9375 L 87.902344 280.046875 L 87.902344 131.710938 L 187.625 74.214844 L 244.980469 107.285156 L 244.980469 95.046875 L 187.625 61.976562 Z M 77.289062 125.589844 " fill-opacity="1" fill-rule="nonzero"/><g clip-path="url(#1ffa9827b4)"><path fill="#b5179e" d="M 187.625 37.5 L 56.066406 113.355469 L 56.066406 261.714844 L 66.675781 267.828125 L 66.675781 119.472656 L 187.625 49.738281 L 244.980469 82.808594 L 244.980469 70.570312 Z M 187.625 37.5 " fill-opacity="1" fill-rule="nonzero"/></g><path fill="#480ca8" d="M 255.59375 224.953125 L 255.59375 76.445312 L 244.980469 70.363281 L 244.980469 218.832031 L 187.710938 251.855469 L 130.007812 218.585938 L 130.007812 230.824219 L 187.710938 264.09375 Z M 255.59375 224.953125 " fill-opacity="1" fill-rule="nonzero"/><path fill="#480ca8" d="M 276.820312 237.191406 L 276.820312 88.605469 L 266.207031 82.523438 L 266.207031 231.070312 L 187.710938 276.332031 L 130.007812 243.058594 L 130.007812 255.296875 L 187.710938 288.570312 Z M 276.820312 237.191406 " fill-opacity="1" fill-rule="nonzero"/><g clip-path="url(#93e2c507ab)"><path fill="#480ca8" d="M 308.65625 106.847656 L 308.65625 255.546875 L 187.710938 325.28125 L 130.007812 292.011719 L 130.007812 304.25 L 187.710938 337.519531 L 319.269531 261.667969 L 319.269531 112.925781 Z M 308.65625 106.847656 " fill-opacity="1" fill-rule="nonzero"/></g><path fill="#480ca8" d="M 298.042969 249.429688 L 298.042969 100.765625 L 287.433594 94.6875 L 287.433594 243.308594 L 187.710938 300.808594 L 130.007812 267.535156 L 130.007812 279.773438 L 187.710938 313.042969 Z M 298.042969 249.429688 " fill-opacity="1" fill-rule="nonzero"/></svg>
